<?xml version="1.0" encoding="UTF-8"?>
<svg version="1.1" xmlns="http://www.w3.org/2000/svg" width="621" height="621">
<path d="M0 0 C204.93 0 409.86 0 621 0 C621 204.93 621 409.86 621 621 C416.07 621 211.14 621 0 621 C0 416.07 0 211.14 0 0 Z " fill="#599FD5" transform="translate(0,0)"/>
<path d="M0 0 C204.93 0 409.86 0 621 0 C621 204.93 621 409.86 621 621 C416.07 621 211.14 621 0 621 C0 416.07 0 211.14 0 0 Z M313 38 C311.18801102 40.09840284 311.18801102 40.09840284 309.3125 42.8125 C308.66925781 43.70582031 308.02601563 44.59914063 307.36328125 45.51953125 C305.38813123 48.37203683 303.53339061 51.29393509 301.6796875 54.2265625 C298.17858977 59.75838117 294.52171685 65.1687886 290.8125 70.5625 C286.19309252 77.30969323 281.59112715 84.06648628 277.0625 90.875 C276.58619141 91.59107422 276.10988281 92.30714844 275.61914062 93.04492188 C274.07865659 95.36277038 272.53927083 97.68134565 271 100 C256.93975744 121.1705118 256.93975744 121.1705118 250.4453125 130.703125 C250.06728989 131.25802109 249.68926727 131.81291718 249.29978943 132.3846283 C247.48530104 135.04641855 245.66780226 137.70610185 243.84692383 140.36352539 C235.51448279 150.53874281 235.51448279 150.53874281 231 162 C225.89942217 159.15162537 220.98661244 156.11287232 216.125 152.875 C215.44953125 152.43285156 214.7740625 151.99070312 214.078125 151.53515625 C209.11977209 148.23954417 209.11977209 148.23954417 208 146 C206.68006881 145.19173466 205.32268332 144.44398559 203.94921875 143.73046875 C199.31693671 141.22898153 195.0768567 138.39029693 190.8125 135.3125 C190.07547852 134.7870459 189.33845703 134.2615918 188.57910156 133.72021484 C185.2191822 131.32244762 181.87137482 128.90813663 178.52734375 126.48828125 C170.76959095 120.88693247 162.86529195 115.53777889 154.89086914 110.24926758 C147.52132354 105.35994059 140.22216525 100.37709883 132.95019531 95.34423828 C130.89653679 93.92868447 128.83585194 92.5238562 126.7734375 91.12109375 C120.21431794 86.65222647 113.73272549 82.19859804 107.6015625 77.14453125 C106.05688193 75.80619137 106.05688193 75.80619137 104 76 C103.81824219 77.03898437 103.63648437 78.07796875 103.44921875 79.1484375 C101.18184114 91.82077898 101.18184114 91.82077898 99.4375 97.125 C98.2190032 100.89296702 97.6100817 104.5069782 97.125 108.4375 C96.37744899 114.30928959 95.04133398 119.80681517 93.4375 125.5 C91.22697306 133.39598637 90.14769579 140.76931626 90 149 C89.34 149 88.68 149 88 149 C87.49311395 151.54046458 86.99433126 154.08208876 86.5 156.625 C86.35691406 157.33785156 86.21382812 158.05070312 86.06640625 158.78515625 C85.26950574 162.92144935 84.83965944 166.76433679 85 171 C84.34 171 83.68 171 83 171 C78.44163556 188.83826637 78.44163556 188.83826637 77 207 C76.34 207 75.68 207 75 207 C74.89453857 207.55872803 74.78907715 208.11745605 74.68041992 208.69311523 C74.18914632 211.27583359 73.6883751 213.85662721 73.1875 216.4375 C73.02185547 217.31599609 72.85621094 218.19449219 72.68554688 219.09960938 C71.84342381 223.40555938 70.8873331 227.53508966 69.4375 231.6796875 C68.03045193 235.70651022 67.3305216 239.45034894 66.8125 243.6875 C66.65394531 244.92886719 66.49539062 246.17023438 66.33203125 247.44921875 C66.03166811 250.66133748 65.93563672 253.77688509 66 257 C65.34 257 64.68 257 64 257 C62.25698975 263.34455732 60.8449274 269.59471362 60 276.125 C59.1139522 282.80727716 57.67139062 289.07664807 55.02514648 295.28833008 C53.97923596 298.05492408 53.36565971 300.66637771 52.81640625 303.5703125 C52.50799805 305.16359375 52.50799805 305.16359375 52.19335938 306.7890625 C51.98517578 307.88992188 51.77699219 308.99078125 51.5625 310.125 C50.37033749 316.41299913 49.15612694 322.63594062 47.41015625 328.796875 C46.14983322 333.25834576 45.39518057 337.51903746 44.875 342.125 C44.09772727 348.90227273 44.09772727 348.90227273 43 350 C42.69481238 351.5561547 42.43224085 353.12070108 42.1875 354.6875 C41.45818084 358.88241605 40.49482548 362.86728224 39.25 366.9375 C37.08032031 374.29803602 35.43337929 381.75124423 33.8125 389.25 C33.55049805 390.44616943 33.28849609 391.64233887 33.01855469 392.87475586 C30.73506789 402.84259251 30.73506789 402.84259251 30 413 C31.77282916 415.69207391 32.79403264 416.72768479 35.9375 417.4375 C38 418 38 418 40.23486328 420.2668457 C43.08752172 423.08650941 45.93921348 425.1191751 49.3046875 427.29296875 C50.19862717 427.87427048 50.19862717 427.87427048 51.11062622 428.46731567 C53.02855431 429.7129231 54.95174224 430.95014157 56.875 432.1875 C58.20487663 433.04968133 59.53430224 433.91255875 60.86328125 434.77612305 C63.44620344 436.45413946 66.0305863 438.12986208 68.61621094 439.80371094 C72.43121049 442.27628407 76.22388718 444.78095077 80 447.3125 C80.54833496 447.67947998 81.09666992 448.04645996 81.66162109 448.42456055 C82.79676997 449.18456661 83.93169318 449.94490983 85.06640625 450.70556641 C89.20644952 453.47709537 93.35413496 456.23719113 97.5 459 C99.30080608 460.20048359 101.10158776 461.40100378 102.90234375 462.6015625 C104.19954346 463.4663623 104.19954346 463.4663623 105.52294922 464.34863281 C139.9453125 487.296875 139.9453125 487.296875 142.44824219 488.96557617 C144.34723218 490.23151177 146.24633194 491.49728272 148.14550781 492.76293945 C154.06118447 496.70570745 159.97526125 500.65084547 165.88682556 504.59977722 C170.17390244 507.46332238 174.46178016 510.32566677 178.75 513.1875 C179.64254486 513.7831778 180.53508972 514.37885559 181.4546814 514.99258423 C196.15209595 524.79823907 210.89950078 534.52600647 225.66439819 544.22964478 C241.85616633 554.87623471 257.94265037 565.67414483 273.98217773 576.54858398 C275.67677308 577.69666956 277.3715108 578.84454501 279.06640625 579.9921875 C280.2632328 580.80275604 280.2632328 580.80275604 281.48423767 581.62969971 C286.55822315 585.05567048 291.6864316 588.36870512 296.87280273 591.62207031 C300.54556501 594.0011671 303.89531475 596.74667312 307.296875 599.49609375 C310.89381751 601.49728286 312.90479155 601.44503997 317 601 C319.78015778 599.61747309 322.14315972 597.78178267 324.59375 595.88671875 C326.10049126 594.77331102 327.60972435 593.66326956 329.12109375 592.55615234 C329.91435059 591.97154236 330.70760742 591.38693237 331.52490234 590.78460693 C335.73133046 587.7516677 340.06685722 584.91994195 344.40625 582.08203125 C345.30175064 581.49421875 346.19725128 580.90640625 347.11988831 580.30078125 C348.96661574 579.0893816 350.81404179 577.87904632 352.66213989 576.66973877 C357.50713559 573.49892925 362.34584436 570.31856992 367.18359375 567.13671875 C368.59849342 566.20617676 368.59849342 566.20617676 370.04197693 565.25683594 C378.54815979 559.65435886 386.98845008 553.96102482 395.37890625 548.18676758 C399.47898043 545.36911057 403.59448626 542.60544143 407.80859375 539.9609375 C417.18844629 534.03673294 426.31590976 527.72108181 435.5 521.5 C457.670666 506.48212414 457.670666 506.48212414 465.89501953 501.32177734 C468.86452372 499.45714087 471.77492282 497.51496564 474.6875 495.5625 C475.96217664 494.70954135 477.23692141 493.85668449 478.51171875 493.00390625 C479.56238525 492.30031982 479.56238525 492.30031982 480.63427734 491.58251953 C485.41866047 488.3820684 490.21008402 485.19216157 495 482 C497.07814981 480.61462055 499.15627528 479.22920458 501.234375 477.84375 C549.80859375 445.4609375 549.80859375 445.4609375 551.88793945 444.07495117 C553.35161822 443.099001 554.81499159 442.12259267 556.27807617 441.14575195 C560.58291695 438.2727338 564.89276291 435.40751747 569.20967102 432.55267334 C571.67401737 430.92228959 574.13651583 429.28912671 576.59884644 427.65570068 C577.81914432 426.84719181 579.04026851 426.03992864 580.26223755 425.23394775 C581.988163 424.09535753 583.71114457 422.9524337 585.43359375 421.80859375 C586.43447021 421.14657959 587.43534668 420.48456543 588.46655273 419.80249023 C590.56902294 418.3066304 592.22117342 416.8417193 594 415 C594.99 414.34 595.98 413.68 597 413 C593.69735648 388.5735177 587.53167608 364.51705144 581.36010742 340.68920898 C579.71333366 334.24160647 578.38957875 327.84674639 577.42089844 321.26123047 C577.22793371 319.03934356 577.22793371 319.03934356 576 318 C575.545213 315.60622246 575.13664126 313.21751678 574.75 310.8125 C573.39104079 302.68430234 571.6253301 294.68029848 569.71386719 286.6652832 C568.77274307 282.66477388 567.91487314 278.7494605 567.4765625 274.66015625 C567.04051655 271.31118041 566.25139214 269.08614441 565 266 C564.55799741 264.35947769 564.15250576 262.70874654 563.78125 261.05078125 C563.57113281 260.11943359 563.36101563 259.18808594 563.14453125 258.22851562 C562.93183594 257.26623047 562.71914063 256.30394531 562.5 255.3125 C562.28730469 254.36955078 562.07460938 253.42660156 561.85546875 252.45507812 C560.83100773 247.88271374 559.85601015 243.30727123 558.96484375 238.70703125 C558.20409153 234.85176485 557.22330686 231.1324712 556.0625 227.375 C554.47486585 221.93168292 553.27065423 216.53262426 552.28540039 210.95117188 C550.40015373 200.41064748 548.02581612 189.96417068 545.75634766 179.5012207 C544.7203194 174.70532619 543.70206166 169.90567498 542.68505859 165.10571289 C542.05314633 162.24093887 541.3603826 159.40222525 540.625 156.5625 C539.17852382 150.88152103 537.92408646 145.16693661 536.6875 139.4375 C536.47843018 138.4695752 536.26936035 137.50165039 536.05395508 136.50439453 C535.60854414 134.44173545 535.16315089 132.37907256 534.71777344 130.31640625 C533.42737824 124.35425376 532.12399046 118.39504522 530.8125 112.4375 C530.56266357 111.29015381 530.31282715 110.14280762 530.05541992 108.96069336 C529.69734253 107.33852905 529.69734253 107.33852905 529.33203125 105.68359375 C529.12296143 104.73025146 528.9138916 103.77690918 528.69848633 102.79467773 C527.95042941 99.80166566 526.97821559 96.92479815 526 94 C525.68339153 92.64526035 525.39533539 91.28322351 525.1484375 89.9140625 C525.01953125 89.21152344 524.890625 88.50898437 524.7578125 87.78515625 C524.56832031 86.71587891 524.56832031 86.71587891 524.375 85.625 C524.2409375 84.88894531 524.106875 84.15289062 523.96875 83.39453125 C523.64193673 81.59705828 523.32041989 79.79862367 523 78 C521.23128036 77.2067959 521.23128036 77.2067959 519 77 C516.77203481 78.16051708 516.77203481 78.16051708 514.5 80.0625 C513.53449219 80.79984375 512.56898438 81.5371875 511.57421875 82.296875 C511.01911621 82.72162109 510.46401367 83.14636719 509.89208984 83.58398438 C506.10028691 86.42172076 502.19800839 89.10535339 498.3125 91.8125 C497.44222168 92.4204541 496.57194336 93.0284082 495.67529297 93.65478516 C486.06424955 100.36343965 476.40860964 107.00524877 466.71484375 113.59375 C457.5119839 119.85060418 448.33759398 126.13626223 439.26416016 132.57958984 C431.69141115 137.94804758 424.01855058 143.16830073 416.34863281 148.39648438 C412.49705004 151.0261305 408.65457489 153.66898967 404.8125 156.3125 C404.122771 156.78695557 403.43304199 157.26141113 402.72241211 157.75024414 C401.14814265 158.83330412 399.5740492 159.91661993 398 161 C394.91391431 158.24914407 392.80466303 154.87051955 390.5625 151.4375 C389.67207475 150.08710785 388.78144048 148.73685351 387.890625 147.38671875 C387.42205078 146.67435059 386.95347656 145.96198242 386.47070312 145.22802734 C384.96318882 142.94423326 383.44443617 140.66831836 381.921875 138.39453125 C381.40794189 137.62681396 380.89400879 136.85909668 380.36450195 136.06811523 C379.33455518 134.52975679 378.304446 132.99150706 377.27416992 131.45336914 C373.83135314 126.2956017 370.50961536 121.08309411 367.3046875 115.7734375 C366.87414062 115.18820313 366.44359375 114.60296875 366 114 C365.34 114 364.68 114 364 114 C363.814375 113.21625 363.62875 112.4325 363.4375 111.625 C361.81767427 107.54022207 359.66831377 104.48711554 357.10546875 100.94140625 C354.76657762 97.67390157 352.53245024 94.3488429 350.3125 91 C349.89564941 90.37254883 349.47879883 89.74509766 349.04931641 89.09863281 C348.16648855 87.76959485 347.28401217 86.44032337 346.40185547 85.11083984 C343.89830592 81.34112731 341.38601412 77.57724256 338.875 73.8125 C337.85412954 72.28127475 336.83329533 70.75002533 335.8125 69.21875 C335.08933594 68.13400391 335.08933594 68.13400391 334.3515625 67.02734375 C332.52604167 64.2890625 330.70052083 61.55078125 328.875 58.8125 C328.26140625 57.89597656 327.6478125 56.97945312 327.015625 56.03515625 C325.4492193 53.67644069 323.90003607 51.30905507 322.359375 48.93359375 C321.90578613 48.23967529 321.45219727 47.54575684 320.98486328 46.83081055 C320.09217514 45.46485346 319.20493678 44.0953161 318.32373047 42.72192383 C317.26775403 41.11264612 316.13991044 39.55095621 315 38 C314.34 38 313.68 38 313 38 Z " fill="#F8F9FA" transform="translate(0,0)"/>
<path d="M0 0 C0.99 0 1.98 0 3 0 C3 0.66 3 1.32 3 2 C3.71542969 2.25007812 4.43085938 2.50015625 5.16796875 2.7578125 C8.2762081 4.12115059 10.62207241 5.81143036 13.3125 7.875 C16.65673987 10.37752321 19.83382671 12.55694768 23.625 14.3125 C24.73875 14.869375 25.8525 15.42625 27 16 C27.33 16.99 27.66 17.98 28 19 C29.6512614 19.70395881 31.32138489 20.36401766 33 21 C34.82644408 22.22032325 36.61710933 23.49534123 38.375 24.8125 C39.3340625 25.5240625 40.293125 26.235625 41.28125 26.96875 C42.1784375 27.6390625 43.075625 28.309375 44 29 C47.08156383 31.25368101 50.1455571 33.48953572 53.42578125 35.44921875 C55.80173164 36.8805576 58.05217987 38.39408872 60.3125 40 C61.1684375 40.59941406 62.024375 41.19882813 62.90625 41.81640625 C64.58899493 43.00410122 66.26996729 44.19439546 67.94140625 45.39794922 C70.05788155 46.92151473 72.18466697 48.42985038 74.3125 49.9375 C75.33500854 50.68290039 75.33500854 50.68290039 76.37817383 51.44335938 C79.26425799 53.47366332 81.2896913 54.888521 84.8125 55.44140625 C87.91411581 54.81554449 89.64163954 53.0396631 92 51 C92.66 51 93.32 51 94 51 C94 50.34 94 49.68 94 49 C95.94921875 47.58984375 95.94921875 47.58984375 98.6875 45.9375 C103.09088455 43.21726244 107.38514062 40.40196469 111.625 37.4375 C112.7078125 36.6846875 113.790625 35.931875 114.90625 35.15625 C116.84552856 33.80463161 118.78327397 32.4508079 120.71875 31.09375 C121.5128125 30.5471875 122.306875 30.000625 123.125 29.4375 C124.14980469 28.72400391 124.14980469 28.72400391 125.1953125 27.99609375 C127 27 127 27 130 27 C130 26.34 130 25.68 130 25 C130.66 25 131.32 25 132 25 C132 24.34 132 23.68 132 23 C134.16015625 21.44921875 134.16015625 21.44921875 137.0625 19.6875 C140.48644213 17.57842225 143.83210236 15.45792198 147.0625 13.0625 C150 11 150 11 152 11 C152 10.34 152 9.68 152 9 C154.046875 7.59765625 154.046875 7.59765625 156.75 6.0625 C160.5695771 3.87928452 160.5695771 3.87928452 164.078125 1.24609375 C166 0 166 0 167.96875 -0.0703125 C171.0755242 1.56671852 172.63351096 4.25563904 174.5 7.125 C174.89944824 7.72030518 175.29889648 8.31561035 175.71044922 8.92895508 C177.61577365 11.79320666 179.45734044 14.6784621 181.125 17.6875 C183.19241918 21.33994055 185.5414694 24.67786473 187.96875 28.09765625 C190.67105579 31.95883549 193.26971544 35.8864672 195.86767578 39.81811523 C198.35482533 43.5694487 200.88462216 47.28578163 203.4609375 50.9765625 C204.04794434 51.820979 204.63495117 52.66539551 205.23974609 53.53540039 C206.39032223 55.18721919 207.54667013 56.83503655 208.70947266 58.47827148 C211.58569691 62.6173886 213.43543904 66.17844434 215 71 C215.99 71.33 216.98 71.66 218 72 C219.83203125 74.66015625 219.83203125 74.66015625 221.8125 78.0625 C224.14112863 81.99874803 226.49965706 85.82299682 229.3125 89.4375 C235 96.76771117 235 96.76771117 235 101 C235.66 101 236.32 101 237 101 C239.2569231 103.81435592 241.08823364 106.94386646 243 110 C243.56976563 110.90878906 244.13953125 111.81757813 244.7265625 112.75390625 C249 119.71090047 249 119.71090047 249 122 C249.99 122.33 250.98 122.66 252 123 C253.359375 124.93359375 253.359375 124.93359375 254.75 127.4375 C259.63987029 135.91648691 265.47395221 143.70163304 271.30078125 151.5546875 C275.09564332 157.01579936 275.09564332 157.01579936 274.7578125 160.4921875 C269.00198861 179.53981089 251.86467476 197.94761374 240.52880859 214.07348633 C234.91834419 222.07525809 229.42611497 230.15570556 223.94824219 238.24853516 C219.68782156 244.53913706 215.37566207 250.7890306 211 257 C203.44254978 267.75028481 195.93216946 278.53584507 188.6875 289.5 C186.0969368 293.40949092 183.39625703 297.17585776 180.546875 300.8984375 C178.6917038 303.41884685 176.9732149 306.01260621 175.25 308.625 C172.31581625 313.06803346 169.29810405 317.43025832 166.1875 321.75 C162.64799182 326.66839634 159.17192167 331.62406501 155.75 336.625 C151.63983404 342.62952436 147.49026492 348.60480692 143.3125 354.5625 C132.80392156 369.5552988 122.31755938 384.56233634 112 399.6875 C111.37657715 400.60080078 110.7531543 401.51410156 110.11083984 402.45507812 C107.4942169 406.29777986 104.89010118 410.14558818 102.35546875 414.04296875 C101.64003906 415.14253906 100.92460937 416.24210937 100.1875 417.375 C99.60355469 418.29023437 99.01960937 419.20546875 98.41796875 420.1484375 C97.71607422 421.06496094 97.71607422 421.06496094 97 422 C96.34 422 95.68 422 95 422 C94.71125 422.928125 94.4225 423.85625 94.125 424.8125 C93 428 93 428 91 431 C90.34 431 89.68 431 89 431 C88.34 432.32 87.68 433.64 87 435 C83.75 434.9375 83.75 434.9375 80 434 C79.00464233 432.39017206 78.02419439 430.76809858 77.14306641 429.09301758 C74.99809434 425.16545553 72.35670805 421.55133044 69.8125 417.875 C69.23733643 417.0396875 68.66217285 416.204375 68.06958008 415.34375 C66.91514483 413.66808683 65.75948942 411.99326355 64.60253906 410.31933594 C63.20810538 408.30118848 61.81774509 406.2803471 60.4296875 404.2578125 C56.33566043 398.30934808 52.15821486 392.43334398 47.89453125 386.60546875 C44.86953951 382.44532547 41.93195416 378.22601495 39 374 C38.32324219 373.02546875 37.64648438 372.0509375 36.94921875 371.046875 C35.45717183 368.89493521 33.96767072 366.74122848 32.48046875 364.5859375 C30.68136267 361.97932397 28.8684783 359.38274238 27.05078125 356.7890625 C26.05460011 355.35943589 25.0585051 353.92974926 24.0625 352.5 C23.58973633 351.82952637 23.11697266 351.15905273 22.62988281 350.46826172 C20.27770349 347.08006441 18.32803688 343.94616673 17 340 C16.34 340 15.68 340 15 340 C13.55689076 337.9650024 12.23727795 335.9369398 10.9375 333.8125 C10.12424183 332.51576751 9.30909251 331.22021943 8.4921875 329.92578125 C8.07678711 329.26658691 7.66138672 328.60739258 7.23339844 327.92822266 C3.98177872 322.84483142 0.47907693 317.92916297 -3 313 C-3.66128906 312.06148193 -3.66128906 312.06148193 -4.3359375 311.10400391 C-5.6999225 309.17121018 -7.06776116 307.24121955 -8.4375 305.3125 C-8.86281006 304.71179688 -9.28812012 304.11109375 -9.72631836 303.4921875 C-11.38088809 301.1741169 -12.98222598 299.01777402 -15 297 C-15 296.01 -15 295.02 -15 294 C-15.66 294 -16.32 294 -17 294 C-18.234375 292.296875 -18.234375 292.296875 -19.75 289.75 C-23.18519429 284.19097189 -26.8589927 278.83988409 -30.625 273.5 C-35.25394761 266.92605969 -39.84823175 260.33225221 -44.375 253.6875 C-48.47773183 247.66559651 -52.61788027 241.67207918 -56.79345703 235.70043945 C-63.65348532 225.88819342 -70.36669066 215.9928227 -76.97949219 206.01245117 C-82.98398917 196.97247865 -89.15827364 188.05625206 -95.37890625 179.1640625 C-95.97388916 178.31086426 -96.56887207 177.45766602 -97.18188477 176.57861328 C-98.43969245 174.79467817 -99.71484415 173.02289245 -101.00366211 171.26123047 C-101.64182861 170.38096191 -102.27999512 169.50069336 -102.9375 168.59375 C-103.80375 167.4171582 -103.80375 167.4171582 -104.6875 166.21679688 C-106.64179556 162.91601494 -106.56815324 160.73357845 -106 157 C-105.01 156.67 -104.02 156.34 -103 156 C-102.89913086 155.27022949 -102.79826172 154.54045898 -102.69433594 153.78857422 C-101.91997294 150.67859737 -100.79614553 148.94405942 -98.890625 146.3828125 C-94.98189583 140.99785075 -91.358703 135.4640137 -87.75 129.875 C-82.88338613 122.37328104 -77.95428852 114.92901354 -72.85693359 107.58227539 C-69.38643036 102.5789125 -66.00245189 97.52258291 -62.63867188 92.44702148 C-59.1601165 87.21040423 -55.57735033 82.05150842 -51.9765625 76.8984375 C-50.25172547 74.36913102 -48.63701371 71.81168952 -47.0625 69.1875 C-46.381875 68.135625 -45.70125 67.08375 -45 66 C-44.34 66 -43.68 66 -43 66 C-42.90847656 65.4534375 -42.81695312 64.906875 -42.72265625 64.34375 C-41.78581462 61.3053447 -40.23749316 59.12073368 -38.4375 56.5 C-37.34501953 54.89511719 -37.34501953 54.89511719 -36.23046875 53.2578125 C-35.49441406 52.18273437 -34.75835937 51.10765625 -34 50 C-32.7470083 48.12699792 -31.49698198 46.25200851 -30.25 44.375 C-28.83333333 42.25 -27.41666667 40.125 -26 38 C-25.32662598 36.98993896 -25.32662598 36.98993896 -24.63964844 35.95947266 C-24.15786133 35.23679199 -23.67607422 34.51411133 -23.1796875 33.76953125 C-22.68114258 33.0216333 -22.18259766 32.27373535 -21.66894531 31.50317383 C-20.63994891 29.95984194 -19.61065217 28.41671025 -18.58105469 26.8737793 C-16.0964589 23.14963928 -13.61626529 19.42277663 -11.1484375 15.6875 C-10.47723877 14.67393433 -10.47723877 14.67393433 -9.79248047 13.63989258 C-8.95882995 12.38059844 -8.12698684 11.12010503 -7.29736328 9.8581543 C-2.76295305 3.01773356 -2.76295305 3.01773356 0 0 Z " fill="#2F6AB3" transform="translate(229,163)"/>
<path d="M0 0 C1.35335895 0.97272675 2.68662604 1.9739266 4 3 C4.7425 3.2475 5.485 3.495 6.25 3.75 C9.80942358 5.36791981 12.20626428 7.77638755 15.078125 10.39453125 C17.25423171 12.21237649 19.34897224 13.04268442 22 14 C22.87785156 14.88945312 22.87785156 14.88945312 23.7734375 15.796875 C26.28727939 18.2842554 28.92511769 20.11467695 31.875 22.0625 C32.88304687 22.73410156 33.89109375 23.40570313 34.9296875 24.09765625 C37.94864297 26.0453363 37.94864297 26.0453363 41.1328125 27.49609375 C44.04914847 29.02577951 45.74067519 30.64305005 48 33 C49.42528992 33.9475242 50.88696929 34.84191258 52.375 35.6875 C56.86955391 38.30483753 61.25770563 41.05272332 65.625 43.875 C66.25325684 44.28065186 66.88151367 44.68630371 67.52880859 45.10424805 C69.02001036 46.06825518 70.51012541 47.03394299 72 48 C71.69844149 55.79892696 71.30627532 62.99884475 68.75 70.421875 C67.84318016 73.53906819 67.45982891 76.59129773 67.0625 79.8125 C66.08580133 87.369499 64.43228065 95.1354387 61 102 C60.67933155 103.9170516 60.39498692 105.84023772 60.12890625 107.765625 C59.07576991 114.85160258 57.57648471 121.77933024 55.9375 128.75 C55.66873047 129.92304688 55.39996094 131.09609375 55.12304688 132.3046875 C53.13099962 140.86900038 53.13099962 140.86900038 52 142 C51.56060695 144.36246096 51.16613564 146.7211595 50.7890625 149.09375 C49.06903363 159.33488258 46.62451022 169.37810221 44.12890625 179.45361328 C43.36276855 182.5494249 42.60663704 185.64756715 41.8515625 188.74609375 C41.36776358 190.71628738 40.88341022 192.68634497 40.3984375 194.65625 C40.17239838 195.58207886 39.94635925 196.50790771 39.71347046 197.46179199 C39.50300079 198.30777954 39.29253113 199.15376709 39.07568359 200.02539062 C38.891539 200.7713147 38.70739441 201.51723877 38.51766968 202.2857666 C38 204 38 204 37 205 C36.9175 206.175625 36.835 207.35125 36.75 208.5625 C36.30287464 213.1730222 35.01380895 217.37478383 33.5625 221.75 C31.61512956 227.66973137 30.33900839 233.3423771 29.53515625 239.5390625 C28.46703753 246.44675001 26.67320399 253.21783821 25 260 C24.34 260 23.68 260 23 260 C22.81824219 261.64548828 22.81824219 261.64548828 22.6328125 263.32421875 C22.46390637 264.77868823 22.29461519 266.23311304 22.125 267.6875 C22.04636719 268.40873047 21.96773438 269.12996094 21.88671875 269.87304688 C21.40410939 273.93810267 20.58306666 277.20521205 19 281 C18.09709895 284.24930566 17.33257698 287.52954023 16.5625 290.8125 C16.35818359 291.65748047 16.15386719 292.50246094 15.94335938 293.37304688 C14.673092 298.73507895 13.59928576 304.10894675 12.6171875 309.53125 C11.09630285 317.86306912 9.16913952 326.07789428 7.14819336 334.30102539 C6.56073955 336.69467314 5.98211722 339.0903388 5.40429688 341.48632812 C3.23023902 350.43056011 0.84497014 359.24153538 -2 368 C-2.66 367.67 -3.32 367.34 -4 367 C-4.74508667 364.74754333 -4.74508667 364.74754333 -5.44873047 361.72436523 C-5.71595917 360.59485947 -5.98318787 359.4653537 -6.2585144 358.30162048 C-6.54187653 357.06642166 -6.82523865 355.83122284 -7.1171875 354.55859375 C-7.573472 352.61650139 -8.02975702 350.67440916 -8.48607063 348.73232365 C-9.12716906 345.99399118 -9.76046844 343.25387528 -10.39404297 340.51379395 C-11.18065145 337.11800112 -11.97509506 333.72404674 -12.76953125 330.33007812 C-13.07969898 329.00476756 -13.38985935 327.67945528 -13.70001221 326.35414124 C-13.85177162 325.70573839 -14.00353104 325.05733555 -14.15988922 324.38928413 C-14.61645712 322.43671731 -15.07186226 320.48388225 -15.52703857 318.5309906 C-17.32100041 310.84699536 -19.17398641 303.18318512 -21.11376953 295.53491211 C-22.62866001 289.49246054 -24.03822876 283.42527171 -25.46060181 277.36050415 C-28.90643926 262.68016433 -32.45063333 248.0257933 -36.05618286 233.38391113 C-41.01034772 213.26500026 -45.82919837 193.11799817 -50.55419922 172.9440918 C-51.04910986 170.83120719 -51.54406417 168.71833281 -52.0390625 166.60546875 C-52.28288666 165.56468674 -52.52671082 164.52390472 -52.77792358 163.45158386 C-56.10436087 149.2693896 -59.50313738 135.10445389 -62.89967346 120.93891907 C-63.31407453 119.21006018 -63.72817363 117.48112888 -64.14195251 115.75212097 C-65.21764136 111.25777735 -66.29858517 106.76478567 -67.38671875 102.2734375 C-67.83988709 100.39323961 -68.29301337 98.51303158 -68.74609375 96.6328125 C-69.06041603 95.34360397 -69.06041603 95.34360397 -69.38108826 94.02835083 C-70.76308093 88.27638081 -71.73840546 82.5801638 -72.5390625 76.71875 C-73.10776202 73.36438676 -74.11766244 70.30967669 -75.26953125 67.1171875 C-77.22815215 61.44032905 -79.0301018 54.95169931 -78 49 C-75.92260513 46.85751704 -73.67575027 45.3136602 -71 44 C-70.34 44 -69.68 44 -69 44 C-69 43.34 -69 42.68 -69 42 C-67.14956573 40.80179216 -65.24209738 39.69105018 -63.3125 38.625 C-59.20046086 36.34555461 -55.65380994 33.94377879 -52 31 C-48.57348164 28.57829574 -45.09859719 26.22850078 -41.625 23.875 C-40.64563477 23.20919922 -39.66626953 22.54339844 -38.65722656 21.85742188 C-32.44332672 17.63873618 -26.21700494 13.43878729 -19.94238281 9.31079102 C-15.54273149 6.40684744 -11.31028026 3.31658624 -7.1484375 0.08203125 C-4.34150605 -1.3316415 -2.94041413 -0.95734414 0 0 Z " fill="#173D88" transform="translate(316,222)"/>
<path d="M0 0 C0.66 0 1.32 0 2 0 C1.49339844 0.76570313 1.49339844 0.76570313 0.9765625 1.546875 C-0.37555288 4.94338883 0.0398231 7.63008952 0.375 11.25 C0.48585937 12.51328125 0.59671875 13.7765625 0.7109375 15.078125 C0.85402344 16.52445312 0.85402344 16.52445312 1 18 C-1.75367152 12.68295134 -2.34023448 8.0108091 -2 2 C-1.34 1.34 -0.68 0.68 0 0 Z " fill="#204D99" transform="translate(240,269)"/>
<path d="M0 0 C0.99 0.66 1.98 1.32 3 2 C0.28817788 4.60334924 -0.89133813 4.99456691 -4.75 5.1875 C-5.8225 5.125625 -6.895 5.06375 -8 5 C-8.33 4.34 -8.66 3.68 -9 3 C-7.88625 3.061875 -6.7725 3.12375 -5.625 3.1875 C-4.42875 3.125625 -3.2325 3.06375 -2 3 C-1.34 2.01 -0.68 1.02 0 0 Z " fill="#518BC4" transform="translate(318,594)"/>
<path d="M0 0 C0.66 0.33 1.32 0.66 2 1 C-1.17320782 4.53586014 -3.16743695 6.58578031 -8 7 C-5.4837822 4.39391727 -2.94865641 2.10618315 0 0 Z " fill="#7AB5E1" transform="translate(444,129)"/>
</svg>
